<?xml version="1.0" encoding="UTF-8"?>
<svg version="1.1" xmlns="http://www.w3.org/2000/svg" width="625" height="625">
<path d="M0 0 C1.43291942 -0.00258688 2.86583811 -0.00560094 4.29875582 -0.0090034 C8.22315228 -0.01703912 12.1475304 -0.01886106 16.0719341 -0.01960087 C20.31010192 -0.02145749 24.54826037 -0.02900801 28.78642273 -0.03573608 C38.04932471 -0.04929694 47.31222235 -0.05534101 56.57513261 -0.05974674 C62.36580067 -0.06251374 68.15646708 -0.066752 73.94713402 -0.07125092 C89.9983869 -0.08344211 106.04963847 -0.09374077 122.10089588 -0.09712601 C123.12753156 -0.09734557 124.15416724 -0.09756514 125.21191309 -0.09779136 C126.24093141 -0.09800964 127.26994973 -0.09822791 128.33015043 -0.09845281 C130.41514321 -0.09889626 132.500136 -0.09934283 134.58512878 -0.09979248 C135.61934543 -0.10001391 136.65356207 -0.10023534 137.71911862 -0.10046348 C154.45733123 -0.10440704 171.19550018 -0.12184822 187.93369595 -0.145152 C205.14300154 -0.168917 222.35228528 -0.18133025 239.56160754 -0.18249393 C249.2139964 -0.18340795 258.86632843 -0.18909107 268.51870155 -0.20731354 C276.74224329 -0.22278437 284.96571062 -0.22779419 293.18926416 -0.21957543 C297.37795582 -0.2156931 301.56649797 -0.21647876 305.75517082 -0.23063278 C350.59827603 -0.37319491 389.50677337 9.64030699 422.44377136 41.64044189 C447.84351878 66.93662959 462.94663126 102.374265 463.05949521 138.21892959 C463.05871517 139.55395788 463.05783642 140.88898611 463.05686951 142.22401428 C463.05945639 143.6569337 463.06247045 145.0898524 463.06587291 146.52277011 C463.07390863 150.44716656 463.07573056 154.37154468 463.07647038 158.29594839 C463.078327 162.53411621 463.08587751 166.77227465 463.09260559 171.01043701 C463.10616644 180.27333899 463.11221051 189.53623663 463.11661625 198.79914689 C463.11938325 204.58981495 463.12362151 210.38048136 463.12812042 216.1711483 C463.14031162 232.22240119 463.15061028 248.27365275 463.15399551 264.32491016 C463.15421508 265.35154584 463.15443465 266.37818152 463.15466087 267.43592737 C463.15487914 268.46494569 463.15509742 269.49396401 463.15532231 270.55416471 C463.15576577 272.63915749 463.15621233 274.72415028 463.15666199 276.80914307 C463.15688342 277.84335971 463.15710485 278.87757636 463.15733299 279.9431329 C463.16127654 296.68134551 463.17871773 313.41951447 463.20202151 330.15771023 C463.22578651 347.36701582 463.23819975 364.57629957 463.23936343 381.78562182 C463.24027746 391.43801069 463.24596057 401.09034271 463.26418304 410.74271584 C463.27965388 418.96625757 463.2846637 427.1897249 463.27644494 435.41327844 C463.27256261 439.6019701 463.27334826 443.79051225 463.28750229 447.9791851 C463.43006442 492.82229032 453.41656251 531.73078765 421.41642761 564.66778564 C396.12023992 590.06753306 360.68260451 605.17064554 324.83793992 605.28350949 C323.50291163 605.28272945 322.16788339 605.28185071 320.83285522 605.28088379 C319.39993581 605.28347067 317.96701711 605.28648473 316.5340994 605.28988719 C312.60970295 605.29792291 308.68532482 605.29974485 304.76092112 605.30048466 C300.5227533 605.30234128 296.28459486 605.30989179 292.0464325 605.31661987 C282.78353051 605.33018073 273.52063287 605.3362248 264.25772262 605.34063053 C258.46705455 605.34339753 252.67638815 605.34763579 246.88572121 605.3521347 C230.83446832 605.3643259 214.78321676 605.37462456 198.73195934 605.3780098 C197.70532366 605.37822936 196.67868799 605.37844893 195.62094213 605.37867515 C194.59192381 605.37889343 193.56290549 605.3791117 192.5027048 605.3793366 C190.41771201 605.37978005 188.33271923 605.38022662 186.24772644 605.38067627 C185.2135098 605.3808977 184.17929315 605.38111913 183.11373661 605.38134727 C166.375524 605.38529083 149.63735504 605.40273201 132.89915927 605.42603579 C115.68985368 605.44980079 98.48056994 605.46221403 81.27124768 605.46337771 C71.61885882 605.46429174 61.9665268 605.46997486 52.31415367 605.48819733 C44.09061194 605.50366816 35.86714461 605.50867798 27.64359107 605.50045922 C23.45489941 605.49657689 19.26635725 605.49736255 15.0776844 605.51151657 C-29.76542081 605.6540787 -68.67391814 595.64057679 -101.61091614 563.64044189 C-127.01066355 538.3442542 -142.11377604 502.90661879 -142.22663999 467.0619542 C-142.22585995 465.72692591 -142.2249812 464.39189767 -142.22401428 463.05686951 C-142.22660116 461.62395009 -142.22961522 460.19103139 -142.23301768 458.75811368 C-142.2410534 454.83371723 -142.24287534 450.90933911 -142.24361515 446.9849354 C-142.24547177 442.74676758 -142.25302229 438.50860914 -142.25975037 434.27044678 C-142.27331122 425.00754479 -142.27935529 415.74464715 -142.28376102 406.4817369 C-142.28652803 400.69106884 -142.29076628 394.90040243 -142.2952652 389.10973549 C-142.30745639 373.0584826 -142.31775505 357.00723104 -142.32114029 340.95597363 C-142.32135986 339.92933795 -142.32157942 338.90270227 -142.32180564 337.84495642 C-142.32202392 336.8159381 -142.3222422 335.78691978 -142.32246709 334.72671908 C-142.32291055 332.64172629 -142.32335711 330.55673351 -142.32380676 328.47174072 C-142.32402819 327.43752408 -142.32424962 326.40330743 -142.32447776 325.33775089 C-142.32842132 308.59953828 -142.3458625 291.86136932 -142.36916628 275.12317356 C-142.39293129 257.91386797 -142.40534453 240.70458422 -142.40650821 223.49526197 C-142.40742223 213.8428731 -142.41310535 204.19054108 -142.43132782 194.53816795 C-142.44679865 186.31462622 -142.45180847 178.09115889 -142.44358972 169.86760535 C-142.43970738 165.67891369 -142.44049304 161.49037154 -142.45464706 157.30169868 C-142.59720919 112.45859347 -132.58370729 73.55009614 -100.58357239 40.61309814 C-73.83821348 13.75824677 -37.59490825 -0.02722877 0 0 Z " fill="#73509F" transform="translate(152.0835723876953,9.85955810546875)"/>
<path d="M0 0 C2.56669964 2.3193409 4.06628188 4.6846946 5.6796875 7.734375 C6.18935059 8.68868408 6.69901367 9.64299316 7.22412109 10.6262207 C7.76891113 11.65706787 8.31370117 12.68791504 8.875 13.75 C13.28317322 21.99198559 17.7530463 30.18837372 22.375 38.3125 C27.08466095 46.60150327 31.7496661 54.91362151 36.375 63.25 C37.00059814 64.37752686 37.62619629 65.50505371 38.27075195 66.66674805 C39.54353957 68.96161527 40.81608084 71.25661914 42.08837891 73.55175781 C45.24409143 79.24413121 48.4026973 84.93489616 51.5625 90.625 C52.18366699 91.74358398 52.80483398 92.86216797 53.44482422 94.01464844 C57.61445118 101.51845401 61.80182645 109.01213339 66 116.5 C72.73527072 128.51303568 79.42616786 140.5504417 86.10888672 152.59277344 C89.23745051 158.22951966 92.36882607 163.8647034 95.5 169.5 C99.263131 176.27265455 103.02565148 183.0456442 106.78515625 189.8203125 C113.40989196 201.75578676 120.05411901 213.67988046 126.73071289 225.58642578 C131.00570167 233.21402902 135.25716388 240.85447166 139.5 248.5 C144.38417283 257.29820606 149.27670181 266.09162445 154.1875 274.875 C154.7561377 275.89577637 155.32477539 276.91655273 155.91064453 277.96826172 C158.7282331 283.01115539 161.58849555 288.02027256 164.54296875 292.984375 C165.38468628 294.41160889 165.38468628 294.41160889 166.2434082 295.86767578 C167.29796749 297.64983838 168.36473304 299.42485924 169.44604492 301.19091797 C172.26500086 305.97263433 173.94390392 309.31140572 173 315 C171.83023456 318.42259165 170.34422744 321.63109891 168.75 324.875 C168.30108398 325.79684082 167.85216797 326.71868164 167.38964844 327.66845703 C149.63874416 363.04216627 118.27771485 387.44318763 81.1484375 399.89453125 C79.76867266 400.27427323 78.38535139 400.64117345 77 401 C76.13820633 401.24185532 75.27641266 401.48371063 74.38850403 401.7328949 C60.32256006 405.12470679 45.81318533 404.71567589 31.42578125 404.890625 C30.69853969 404.89986842 29.97129814 404.90911184 29.22201896 404.91863537 C22.34293209 405.00515064 15.463812 405.08036835 8.58433247 405.12720108 C-0.15193478 405.18735032 -8.88323585 405.30495701 -17.61755246 405.50047708 C-23.79886035 405.63407425 -29.97883666 405.70174575 -36.16154414 405.72151542 C-39.83950368 405.73500458 -43.51190106 405.77632422 -47.18826866 405.88910675 C-69.38155144 406.5387597 -69.38155144 406.5387597 -75.3864193 402.32565117 C-79.2568117 398.38552236 -81.8066122 393.97119553 -84.07326889 388.96713066 C-85.27392317 386.41855554 -86.83734517 384.25706033 -88.55859375 382.03515625 C-89.03941406 381.37064453 -89.52023437 380.70613281 -90.015625 380.02148438 C-90.48484375 379.37501953 -90.9540625 378.72855469 -91.4375 378.0625 C-92.52997412 376.55340439 -93.62242124 375.04428922 -94.71484375 373.53515625 C-95.25737793 372.78637207 -95.79991211 372.03758789 -96.35888672 371.26611328 C-99.07648173 367.513552 -101.78794473 363.75656581 -104.5 360 C-105.58330362 358.49997854 -106.66663696 356.99997854 -107.75 355.5 C-114.25 346.5 -120.75 337.5 -127.25 328.5 C-127.7864917 327.75717773 -128.3229834 327.01435547 -128.87573242 326.24902344 C-129.95667191 324.75231299 -131.03756401 323.25556832 -132.1184082 321.75878906 C-134.8629754 317.95817363 -137.60841966 314.15819702 -140.35546875 310.359375 C-145.29740881 303.5236258 -150.23324405 296.68427573 -155.125 289.8125 C-160.34103064 282.48621608 -165.66590624 275.24057593 -171 268 C-170.67 267.34 -170.34 266.68 -170 266 C-165.93229783 269.97261303 -161.97732946 273.96152405 -158.3125 278.3125 C-154.73516465 282.45895688 -151.40441545 284.88930719 -146 286 C-144.30747052 286.11353562 -142.6113452 286.17840754 -140.9152832 286.20874023 C-139.39769157 286.23767616 -139.39769157 286.23767616 -137.84944153 286.26719666 C-133.22494361 286.32523257 -128.60059558 286.3742162 -123.97583008 286.4050293 C-121.54241739 286.42659837 -119.10908205 286.46068771 -116.67602539 286.50756836 C-113.15476068 286.57474708 -109.63509741 286.60205928 -106.11328125 286.62109375 C-104.49562614 286.66283974 -104.49562614 286.66283974 -102.84529114 286.70542908 C-92.78800644 286.6782716 -87.01999396 282.41166317 -80.0703125 275.43359375 C-79.255625 274.61826172 -78.4409375 273.80292969 -77.6015625 272.96289062 C-76.37566406 271.71282227 -76.37566406 271.71282227 -75.125 270.4375 C-74.28453125 269.60025391 -73.4440625 268.76300781 -72.578125 267.90039062 C-64.82990718 260.27860914 -64.82990718 260.27860914 -62.59936523 249.99145508 C-62.58602646 248.80284378 -62.57268768 247.61423248 -62.5589447 246.38960266 C-62.55882889 245.1124791 -62.55871307 243.83535553 -62.55859375 242.51953125 C-62.54680574 241.18298406 -62.53343805 239.84644995 -62.51856995 238.50993347 C-62.48243685 234.99405934 -62.46220862 231.47830102 -62.44702148 227.96228027 C-62.42218102 222.3537502 -62.38198525 216.74547661 -62.32512093 211.13718224 C-62.30899755 209.19321655 -62.30539235 207.24915978 -62.30210876 205.30513 C-62.06307044 177.04342643 -47.1620653 153.76715096 -28.40014648 133.80151367 C-6.02607105 109.82490727 6.20483868 78.9732163 6.3125 46.3125 C6.31797852 45.10150635 6.32345703 43.8905127 6.32910156 42.64282227 C6.24167472 31.55393377 4.75305261 21.16329233 1.6640625 10.5234375 C0.74312904 7.02389036 0.33951821 3.59889301 0 0 Z " fill="#654686" transform="translate(433,210)"/>
<path d="M0 0 C25.06526859 22.11099584 43.14700307 51.52175386 45.72753906 85.52392578 C47.39591995 122.09930669 39.53757341 155.58948937 14.41503906 183.39892578 C13.66609375 184.21619141 12.91714844 185.03345703 12.14550781 185.87548828 C-3.83620711 203.38050075 -18.28934677 223.62524078 -22.27246094 247.52392578 C-61.21246094 247.52392578 -100.15246094 247.52392578 -140.27246094 247.52392578 C-141.92246094 242.90392578 -143.57246094 238.28392578 -145.27246094 233.52392578 C-147.00980087 230.0388892 -148.73932554 226.73613079 -150.70996094 223.39892578 C-151.22075195 222.52002686 -151.73154297 221.64112793 -152.2578125 220.7355957 C-159.70340485 208.14787711 -168.14393092 196.09912658 -177.41699219 184.78955078 C-198.01262018 159.64120503 -209.44175596 131.86082888 -209.45996094 99.27392578 C-209.47220703 98.13568359 -209.48445312 96.99744141 -209.49707031 95.82470703 C-209.54075137 70.16936641 -201.20233128 45.29822936 -186.27246094 24.52392578 C-185.67175781 23.68087891 -185.07105469 22.83783203 -184.45214844 21.96923828 C-164.6016434 -4.240303 -135.05222808 -22.86376804 -102.33691406 -27.76611328 C-65.64452258 -32.42360974 -28.50252972 -24.32912865 0 0 Z " fill="#EDEEEE" transform="translate(394.2724609375,156.47607421875)"/>
<path d="M0 0 C38.61 0 77.22 0 117 0 C117 37.20848946 117 37.20848946 104.06054688 50.26171875 C103.23619141 51.08285156 102.41183594 51.90398437 101.5625 52.75 C100.74201172 53.58660156 99.92152344 54.42320312 99.07617188 55.28515625 C98.26857422 56.09339844 97.46097656 56.90164063 96.62890625 57.734375 C95.90775635 58.45850586 95.18660645 59.18263672 94.44360352 59.92871094 C87.35247773 65.93941242 82.30790532 66.59101997 73.1875 66.49609375 C71.49596802 66.4982766 71.49596802 66.4982766 69.77026367 66.50050354 C67.39336556 66.49884846 65.0164563 66.48733128 62.63964844 66.46655273 C59.0119043 66.43759502 55.38562264 66.44595415 51.7578125 66.45898438 C49.44270127 66.45274642 47.12759463 66.44435504 44.8125 66.43359375 C43.19347778 66.43799721 43.19347778 66.43799721 41.54174805 66.44248962 C31.18389803 66.31342639 25.31923647 63.25134003 18 56 C14.92025238 52.73408456 11.95237649 49.38094727 9 46 C8.32195312 45.24847656 7.64390625 44.49695313 6.9453125 43.72265625 C6.32398438 43.03042969 5.70265625 42.33820313 5.0625 41.625 C4.51722656 41.01914062 3.97195313 40.41328125 3.41015625 39.7890625 C-5.61005779 28.34513444 0 16.03602691 0 0 Z " fill="#C9CACC" transform="translate(254,431)"/>
<path d="M0 0 C6.1470265 -0.22007873 10.10942698 -0.17813712 14.8515625 4.19921875 C17.21396466 6.56162091 17.78391718 7.75469237 18.2890625 11.07421875 C17.62244318 15.83578534 15.53083343 18.85771389 11.79296875 21.84375 C7.67548505 23.74118273 3.95865048 23.63915302 -0.5234375 23.69921875 C-18.13469432 24.30837305 -38.38041495 27.81378698 -51.1484375 41.19921875 C-62.71914725 54.93106933 -65.81119504 68.4848311 -65.609375 86.18823242 C-65.63120763 95.31222384 -65.63120763 95.31222384 -68.5546875 98.9140625 C-72.41135195 102.31187681 -74.87535474 102.61163072 -79.890625 102.5390625 C-82.1484375 102.19921875 -82.1484375 102.19921875 -85.0859375 100.13671875 C-91.12843992 91.53073046 -89.98941684 80.12440989 -88.42578125 70.19921875 C-84.66257484 48.94462897 -75.81414676 30.3571635 -57.8984375 17.44921875 C-40.38265293 5.63976037 -20.75044398 1.31299335 0 0 Z " fill="#7452A0" transform="translate(318.1484375,173.80078125)"/>
</svg>
